<svg width="183" height="183" viewBox="0 0 183 183" fill="none" xmlns="http://www.w3.org/2000/svg"><circle cx="0.0" cy="0.0" r="1" fill="#D1D5DA"></circle><circle cx="9.0" cy="0.0" r="1" fill="#D1D5DA"></circle><circle cx="18.0" cy="0.0" r="1" fill="#D1D5DA"></circle><circle cx="27.0" cy="0.0" r="1" fill="#D1D5DA"></circle><circle cx="36.0" cy="0.0" r="1" fill="#D1D5DA"></circle><circle cx="45.0" cy="0.0" r="1" fill="#D1D5DA"></circle><circle cx="54.0" cy="0.0" r="1" fill="#D1D5DA"></circle><circle cx="63.0" cy="0.0" r="1" fill="#D1D5DA"></circle><circle cx="72.0" cy="0.0" r="1" fill="#D1D5DA"></circle><circle cx="81.0" cy="0.0" r="1" fill="#D1D5DA"></circle><circle cx="90.0" cy="0.0" r="1" fill="#D1D5DA"></circle><circle cx="99.0" cy="0.0" r="1" fill="#D1D5DA"></circle><circle cx="108.0" cy="0.0" r="1" fill="#D1D5DA"></circle><circle cx="117.0" cy="0.0" r="1" fill="#D1D5DA"></circle><circle cx="126.0" cy="0.0" r="1" fill="#D1D5DA"></circle><circle cx="135.0" cy="0.0" r="1" fill="#D1D5DA"></circle><circle cx="144.0" cy="0.0" r="1" fill="#D1D5DA"></circle><circle cx="153.0" cy="0.0" r="1" fill="#D1D5DA"></circle><circle cx="162.0" cy="0.0" r="1" fill="#D1D5DA"></circle><circle cx="171.0" cy="0.0" r="1" fill="#D1D5DA"></circle><circle cx="0.0" cy="9.0" r="1" fill="#D1D5DA"></circle><circle cx="9.0" cy="9.0" r="1" fill="#D1D5DA"></circle><circle cx="18.0" cy="9.0" r="1" fill="#D1D5DA"></circle><circle cx="27.0" cy="9.0" r="1" fill="#D1D5DA"></circle><circle cx="36.0" cy="9.0" r="1" fill="#D1D5DA"></circle><circle cx="45.0" cy="9.0" r="1" fill="#D1D5DA"></circle><circle cx="54.0" cy="9.0" r="1" fill="#D1D5DA"></circle><circle cx="63.0" cy="9.0" r="1" fill="#D1D5DA"></circle><circle cx="72.0" cy="9.0" r="1" fill="#D1D5DA"></circle><circle cx="81.0" cy="9.0" r="1" fill="#D1D5DA"></circle><circle cx="90.0" cy="9.0" r="1" fill="#D1D5DA"></circle><circle cx="99.0" cy="9.0" r="1" fill="#D1D5DA"></circle><circle cx="108.0" cy="9.0" r="1" fill="#D1D5DA"></circle><circle cx="117.0" cy="9.0" r="1" fill="#D1D5DA"></circle><circle cx="126.0" cy="9.0" r="1" fill="#D1D5DA"></circle><circle cx="135.0" cy="9.0" r="1" fill="#D1D5DA"></circle><circle cx="144.0" cy="9.0" r="1" fill="#D1D5DA"></circle><circle cx="153.0" cy="9.0" r="1" fill="#D1D5DA"></circle><circle cx="162.0" cy="9.0" r="1" fill="#D1D5DA"></circle><circle cx="171.0" cy="9.0" r="1" fill="#D1D5DA"></circle><circle cx="0.0" cy="18.0" r="1" fill="#D1D5DA"></circle><circle cx="9.0" cy="18.0" r="1" fill="#D1D5DA"></circle><circle cx="18.0" cy="18.0" r="1" fill="#D1D5DA"></circle><circle cx="27.0" cy="18.0" r="1" fill="#D1D5DA"></circle><circle cx="36.0" cy="18.0" r="1" fill="#D1D5DA"></circle><circle cx="45.0" cy="18.0" r="1" fill="#D1D5DA"></circle><circle cx="54.0" cy="18.0" r="1" fill="#D1D5DA"></circle><circle cx="63.0" cy="18.0" r="1" fill="#D1D5DA"></circle><circle cx="72.0" cy="18.0" r="1" fill="#D1D5DA"></circle><circle cx="81.0" cy="18.0" r="1" fill="#D1D5DA"></circle><circle cx="90.0" cy="18.0" r="1" fill="#D1D5DA"></circle><circle cx="99.0" cy="18.0" r="1" fill="#D1D5DA"></circle><circle cx="108.0" cy="18.0" r="1" fill="#D1D5DA"></circle><circle cx="117.0" cy="18.0" r="1" fill="#D1D5DA"></circle><circle cx="126.0" cy="18.0" r="1" fill="#D1D5DA"></circle><circle cx="135.0" cy="18.0" r="1" fill="#D1D5DA"></circle><circle cx="144.0" cy="18.0" r="1" fill="#D1D5DA"></circle><circle cx="153.0" cy="18.0" r="1" fill="#D1D5DA"></circle><circle cx="162.0" cy="18.0" r="1" fill="#D1D5DA"></circle><circle cx="171.0" cy="18.0" r="1" fill="#D1D5DA"></circle><circle cx="0.0" cy="27.0" r="1" fill="#D1D5DA"></circle><circle cx="9.0" cy="27.0" r="1" fill="#D1D5DA"></circle><circle cx="18.0" cy="27.0" r="1" fill="#D1D5DA"></circle><circle cx="27.0" cy="27.0" r="1" fill="#D1D5DA"></circle><circle cx="36.0" cy="27.0" r="1" fill="#D1D5DA"></circle><circle cx="45.0" cy="27.0" r="1" fill="#D1D5DA"></circle><circle cx="54.0" cy="27.0" r="1" fill="#D1D5DA"></circle><circle cx="63.0" cy="27.0" r="1" fill="#D1D5DA"></circle><circle cx="72.0" cy="27.0" r="1" fill="#D1D5DA"></circle><circle cx="81.0" cy="27.0" r="1" fill="#D1D5DA"></circle><circle cx="90.0" cy="27.0" r="1" fill="#D1D5DA"></circle><circle cx="99.0" cy="27.0" r="1" fill="#D1D5DA"></circle><circle cx="108.0" cy="27.0" r="1" fill="#D1D5DA"></circle><circle cx="117.0" cy="27.0" r="1" fill="#D1D5DA"></circle><circle cx="126.0" cy="27.0" r="1" fill="#D1D5DA"></circle><circle cx="135.0" cy="27.0" r="1" fill="#D1D5DA"></circle><circle cx="144.0" cy="27.0" r="1" fill="#D1D5DA"></circle><circle cx="153.0" cy="27.0" r="1" fill="#D1D5DA"></circle><circle cx="162.0" cy="27.0" r="1" fill="#D1D5DA"></circle><circle cx="171.0" cy="27.0" r="1" fill="#D1D5DA"></circle><circle cx="0.0" cy="36.0" r="1" fill="#D1D5DA"></circle><circle cx="9.0" cy="36.0" r="1" fill="#D1D5DA"></circle><circle cx="18.0" cy="36.0" r="1" fill="#D1D5DA"></circle><circle cx="27.0" cy="36.0" r="1" fill="#D1D5DA"></circle><circle cx="36.0" cy="36.0" r="1" fill="#D1D5DA"></circle><circle cx="45.0" cy="36.0" r="1" fill="#D1D5DA"></circle><circle cx="54.0" cy="36.0" r="1" fill="#D1D5DA"></circle><circle cx="63.0" cy="36.0" r="1" fill="#D1D5DA"></circle><circle cx="72.0" cy="36.0" r="1" fill="#D1D5DA"></circle><circle cx="81.0" cy="36.0" r="1" fill="#D1D5DA"></circle><circle cx="90.0" cy="36.0" r="1" fill="#D1D5DA"></circle><circle cx="99.0" cy="36.0" r="1" fill="#D1D5DA"></circle><circle cx="108.0" cy="36.0" r="1" fill="#D1D5DA"></circle><circle cx="117.0" cy="36.0" r="1" fill="#D1D5DA"></circle><circle cx="126.0" cy="36.0" r="1" fill="#D1D5DA"></circle><circle cx="135.0" cy="36.0" r="1" fill="#D1D5DA"></circle><circle cx="144.0" cy="36.0" r="1" fill="#D1D5DA"></circle><circle cx="153.0" cy="36.0" r="1" fill="#D1D5DA"></circle><circle cx="162.0" cy="36.0" r="1" fill="#D1D5DA"></circle><circle cx="171.0" cy="36.0" r="1" fill="#D1D5DA"></circle><circle cx="0.0" cy="45.0" r="1" fill="#D1D5DA"></circle><circle cx="9.0" cy="45.0" r="1" fill="#D1D5DA"></circle><circle cx="18.0" cy="45.0" r="1" fill="#D1D5DA"></circle><circle cx="27.0" cy="45.0" r="1" fill="#D1D5DA"></circle><circle cx="36.0" cy="45.0" r="1" fill="#D1D5DA"></circle><circle cx="45.0" cy="45.0" r="1" fill="#D1D5DA"></circle><circle cx="54.0" cy="45.0" r="1" fill="#D1D5DA"></circle><circle cx="63.0" cy="45.0" r="1" fill="#D1D5DA"></circle><circle cx="72.0" cy="45.0" r="1" fill="#D1D5DA"></circle><circle cx="81.0" cy="45.0" r="1" fill="#D1D5DA"></circle><circle cx="90.0" cy="45.0" r="1" fill="#D1D5DA"></circle><circle cx="99.0" cy="45.0" r="1" fill="#D1D5DA"></circle><circle cx="108.0" cy="45.0" r="1" fill="#D1D5DA"></circle><circle cx="117.0" cy="45.0" r="1" fill="#D1D5DA"></circle><circle cx="126.0" cy="45.0" r="1" fill="#D1D5DA"></circle><circle cx="135.0" cy="45.0" r="1" fill="#D1D5DA"></circle><circle cx="144.0" cy="45.0" r="1" fill="#D1D5DA"></circle><circle cx="153.0" cy="45.0" r="1" fill="#D1D5DA"></circle><circle cx="162.0" cy="45.0" r="1" fill="#D1D5DA"></circle><circle cx="171.0" cy="45.0" r="1" fill="#D1D5DA"></circle><circle cx="0.0" cy="54.0" r="1" fill="#D1D5DA"></circle><circle cx="9.0" cy="54.0" r="1" fill="#D1D5DA"></circle><circle cx="18.0" cy="54.0" r="1" fill="#D1D5DA"></circle><circle cx="27.0" cy="54.0" r="1" fill="#D1D5DA"></circle><circle cx="36.0" cy="54.0" r="1" fill="#D1D5DA"></circle><circle cx="45.0" cy="54.0" r="1" fill="#D1D5DA"></circle><circle cx="54.0" cy="54.0" r="1" fill="#D1D5DA"></circle><circle cx="63.0" cy="54.0" r="1" fill="#D1D5DA"></circle><circle cx="72.0" cy="54.0" r="1" fill="#D1D5DA"></circle><circle cx="81.0" cy="54.0" r="1" fill="#D1D5DA"></circle><circle cx="90.0" cy="54.0" r="1" fill="#D1D5DA"></circle><circle cx="99.0" cy="54.0" r="1" fill="#D1D5DA"></circle><circle cx="108.0" cy="54.0" r="1" fill="#D1D5DA"></circle><circle cx="117.0" cy="54.0" r="1" fill="#D1D5DA"></circle><circle cx="126.0" cy="54.0" r="1" fill="#D1D5DA"></circle><circle cx="135.0" cy="54.0" r="1" fill="#D1D5DA"></circle><circle cx="144.0" cy="54.0" r="1" fill="#D1D5DA"></circle><circle cx="153.0" cy="54.0" r="1" fill="#D1D5DA"></circle><circle cx="162.0" cy="54.0" r="1" fill="#D1D5DA"></circle><circle cx="171.0" cy="54.0" r="1" fill="#D1D5DA"></circle><circle cx="0.0" cy="63.0" r="1" fill="#D1D5DA"></circle><circle cx="9.0" cy="63.0" r="1" fill="#D1D5DA"></circle><circle cx="18.0" cy="63.0" r="1" fill="#D1D5DA"></circle><circle cx="27.0" cy="63.0" r="1" fill="#D1D5DA"></circle><circle cx="36.0" cy="63.0" r="1" fill="#D1D5DA"></circle><circle cx="45.0" cy="63.0" r="1" fill="#D1D5DA"></circle><circle cx="54.0" cy="63.0" r="1" fill="#D1D5DA"></circle><circle cx="63.0" cy="63.0" r="1" fill="#D1D5DA"></circle><circle cx="72.0" cy="63.0" r="1" fill="#D1D5DA"></circle><circle cx="81.0" cy="63.0" r="1" fill="#D1D5DA"></circle><circle cx="90.0" cy="63.0" r="1" fill="#D1D5DA"></circle><circle cx="99.0" cy="63.0" r="1" fill="#D1D5DA"></circle><circle cx="108.0" cy="63.0" r="1" fill="#D1D5DA"></circle><circle cx="117.0" cy="63.0" r="1" fill="#D1D5DA"></circle><circle cx="126.0" cy="63.0" r="1" fill="#D1D5DA"></circle><circle cx="135.0" cy="63.0" r="1" fill="#D1D5DA"></circle><circle cx="144.0" cy="63.0" r="1" fill="#D1D5DA"></circle><circle cx="153.0" cy="63.0" r="1" fill="#D1D5DA"></circle><circle cx="162.0" cy="63.0" r="1" fill="#D1D5DA"></circle><circle cx="171.0" cy="63.0" r="1" fill="#D1D5DA"></circle><circle cx="0.0" cy="72.0" r="1" fill="#D1D5DA"></circle><circle cx="9.0" cy="72.0" r="1" fill="#D1D5DA"></circle><circle cx="18.0" cy="72.0" r="1" fill="#D1D5DA"></circle><circle cx="27.0" cy="72.0" r="1" fill="#D1D5DA"></circle><circle cx="36.0" cy="72.0" r="1" fill="#D1D5DA"></circle><circle cx="45.0" cy="72.0" r="1" fill="#D1D5DA"></circle><circle cx="54.0" cy="72.0" r="1" fill="#D1D5DA"></circle><circle cx="63.0" cy="72.0" r="1" fill="#D1D5DA"></circle><circle cx="72.0" cy="72.0" r="1" fill="#D1D5DA"></circle><circle cx="81.0" cy="72.0" r="1" fill="#D1D5DA"></circle><circle cx="90.0" cy="72.0" r="1" fill="#D1D5DA"></circle><circle cx="99.0" cy="72.0" r="1" fill="#D1D5DA"></circle><circle cx="108.0" cy="72.0" r="1" fill="#D1D5DA"></circle><circle cx="117.0" cy="72.0" r="1" fill="#D1D5DA"></circle><circle cx="126.0" cy="72.0" r="1" fill="#D1D5DA"></circle><circle cx="135.0" cy="72.0" r="1" fill="#D1D5DA"></circle><circle cx="144.0" cy="72.0" r="1" fill="#D1D5DA"></circle><circle cx="153.0" cy="72.0" r="1" fill="#D1D5DA"></circle><circle cx="162.0" cy="72.0" r="1" fill="#D1D5DA"></circle><circle cx="171.0" cy="72.0" r="1" fill="#D1D5DA"></circle><circle cx="0.0" cy="81.0" r="1" fill="#D1D5DA"></circle><circle cx="9.0" cy="81.0" r="1" fill="#D1D5DA"></circle><circle cx="18.0" cy="81.0" r="1" fill="#D1D5DA"></circle><circle cx="27.0" cy="81.0" r="1" fill="#D1D5DA"></circle><circle cx="36.0" cy="81.0" r="1" fill="#D1D5DA"></circle><circle cx="45.0" cy="81.0" r="1" fill="#D1D5DA"></circle><circle cx="54.0" cy="81.0" r="1" fill="#D1D5DA"></circle><circle cx="63.0" cy="81.0" r="1" fill="#D1D5DA"></circle><circle cx="72.0" cy="81.0" r="1" fill="#D1D5DA"></circle><circle cx="81.0" cy="81.0" r="1" fill="#D1D5DA"></circle><circle cx="90.0" cy="81.0" r="1" fill="#D1D5DA"></circle><circle cx="99.0" cy="81.0" r="1" fill="#D1D5DA"></circle><circle cx="108.0" cy="81.0" r="1" fill="#D1D5DA"></circle><circle cx="117.0" cy="81.0" r="1" fill="#D1D5DA"></circle><circle cx="126.0" cy="81.0" r="1" fill="#D1D5DA"></circle><circle cx="135.0" cy="81.0" r="1" fill="#D1D5DA"></circle><circle cx="144.0" cy="81.0" r="1" fill="#D1D5DA"></circle><circle cx="153.0" cy="81.0" r="1" fill="#D1D5DA"></circle><circle cx="162.0" cy="81.0" r="1" fill="#D1D5DA"></circle><circle cx="171.0" cy="81.0" r="1" fill="#D1D5DA"></circle><circle cx="0.0" cy="90.0" r="1" fill="#D1D5DA"></circle><circle cx="9.0" cy="90.0" r="1" fill="#D1D5DA"></circle><circle cx="18.0" cy="90.0" r="1" fill="#D1D5DA"></circle><circle cx="27.0" cy="90.0" r="1" fill="#D1D5DA"></circle><circle cx="36.0" cy="90.0" r="1" fill="#D1D5DA"></circle><circle cx="45.0" cy="90.0" r="1" fill="#D1D5DA"></circle><circle cx="54.0" cy="90.0" r="1" fill="#D1D5DA"></circle><circle cx="63.0" cy="90.0" r="1" fill="#D1D5DA"></circle><circle cx="72.0" cy="90.0" r="1" fill="#D1D5DA"></circle><circle cx="81.0" cy="90.0" r="1" fill="#D1D5DA"></circle><circle cx="90.0" cy="90.0" r="1" fill="#D1D5DA"></circle><circle cx="99.0" cy="90.0" r="1" fill="#D1D5DA"></circle><circle cx="108.0" cy="90.0" r="1" fill="#D1D5DA"></circle><circle cx="117.0" cy="90.0" r="1" fill="#D1D5DA"></circle><circle cx="126.0" cy="90.0" r="1" fill="#D1D5DA"></circle><circle cx="135.0" cy="90.0" r="1" fill="#D1D5DA"></circle><circle cx="144.0" cy="90.0" r="1" fill="#D1D5DA"></circle><circle cx="153.0" cy="90.0" r="1" fill="#D1D5DA"></circle><circle cx="162.0" cy="90.0" r="1" fill="#D1D5DA"></circle><circle cx="171.0" cy="90.0" r="1" fill="#D1D5DA"></circle><circle cx="0.0" cy="99.0" r="1" fill="#D1D5DA"></circle><circle cx="9.0" cy="99.0" r="1" fill="#D1D5DA"></circle><circle cx="18.0" cy="99.0" r="1" fill="#D1D5DA"></circle><circle cx="27.0" cy="99.0" r="1" fill="#D1D5DA"></circle><circle cx="36.0" cy="99.0" r="1" fill="#D1D5DA"></circle><circle cx="45.0" cy="99.0" r="1" fill="#D1D5DA"></circle><circle cx="54.0" cy="99.0" r="1" fill="#D1D5DA"></circle><circle cx="63.0" cy="99.0" r="1" fill="#D1D5DA"></circle><circle cx="72.0" cy="99.0" r="1" fill="#D1D5DA"></circle><circle cx="81.0" cy="99.0" r="1" fill="#D1D5DA"></circle><circle cx="90.0" cy="99.0" r="1" fill="#D1D5DA"></circle><circle cx="99.0" cy="99.0" r="1" fill="#D1D5DA"></circle><circle cx="108.0" cy="99.0" r="1" fill="#D1D5DA"></circle><circle cx="117.0" cy="99.0" r="1" fill="#D1D5DA"></circle><circle cx="126.0" cy="99.0" r="1" fill="#D1D5DA"></circle><circle cx="135.0" cy="99.0" r="1" fill="#D1D5DA"></circle><circle cx="144.0" cy="99.0" r="1" fill="#D1D5DA"></circle><circle cx="153.0" cy="99.0" r="1" fill="#D1D5DA"></circle><circle cx="162.0" cy="99.0" r="1" fill="#D1D5DA"></circle><circle cx="171.0" cy="99.0" r="1" fill="#D1D5DA"></circle><circle cx="0.0" cy="108.0" r="1" fill="#D1D5DA"></circle><circle cx="9.0" cy="108.0" r="1" fill="#D1D5DA"></circle><circle cx="18.0" cy="108.0" r="1" fill="#D1D5DA"></circle><circle cx="27.0" cy="108.0" r="1" fill="#D1D5DA"></circle><circle cx="36.0" cy="108.0" r="1" fill="#D1D5DA"></circle><circle cx="45.0" cy="108.0" r="1" fill="#D1D5DA"></circle><circle cx="54.0" cy="108.0" r="1" fill="#D1D5DA"></circle><circle cx="63.0" cy="108.0" r="1" fill="#D1D5DA"></circle><circle cx="72.0" cy="108.0" r="1" fill="#D1D5DA"></circle><circle cx="81.0" cy="108.0" r="1" fill="#D1D5DA"></circle><circle cx="90.0" cy="108.0" r="1" fill="#D1D5DA"></circle><circle cx="99.0" cy="108.0" r="1" fill="#D1D5DA"></circle><circle cx="108.0" cy="108.0" r="1" fill="#D1D5DA"></circle><circle cx="117.0" cy="108.0" r="1" fill="#D1D5DA"></circle><circle cx="126.0" cy="108.0" r="1" fill="#D1D5DA"></circle><circle cx="135.0" cy="108.0" r="1" fill="#D1D5DA"></circle><circle cx="144.0" cy="108.0" r="1" fill="#D1D5DA"></circle><circle cx="153.0" cy="108.0" r="1" fill="#D1D5DA"></circle><circle cx="162.0" cy="108.0" r="1" fill="#D1D5DA"></circle><circle cx="171.0" cy="108.0" r="1" fill="#D1D5DA"></circle><circle cx="0.0" cy="117.0" r="1" fill="#D1D5DA"></circle><circle cx="9.0" cy="117.0" r="1" fill="#D1D5DA"></circle><circle cx="18.0" cy="117.0" r="1" fill="#D1D5DA"></circle><circle cx="27.0" cy="117.0" r="1" fill="#D1D5DA"></circle><circle cx="36.0" cy="117.0" r="1" fill="#D1D5DA"></circle><circle cx="45.0" cy="117.0" r="1" fill="#D1D5DA"></circle><circle cx="54.0" cy="117.0" r="1" fill="#D1D5DA"></circle><circle cx="63.0" cy="117.0" r="1" fill="#D1D5DA"></circle><circle cx="72.0" cy="117.0" r="1" fill="#D1D5DA"></circle><circle cx="81.0" cy="117.0" r="1" fill="#D1D5DA"></circle><circle cx="90.0" cy="117.0" r="1" fill="#D1D5DA"></circle><circle cx="99.0" cy="117.0" r="1" fill="#D1D5DA"></circle><circle cx="108.0" cy="117.0" r="1" fill="#D1D5DA"></circle><circle cx="117.0" cy="117.0" r="1" fill="#D1D5DA"></circle><circle cx="126.0" cy="117.0" r="1" fill="#D1D5DA"></circle><circle cx="135.0" cy="117.0" r="1" fill="#D1D5DA"></circle><circle cx="144.0" cy="117.0" r="1" fill="#D1D5DA"></circle><circle cx="153.0" cy="117.0" r="1" fill="#D1D5DA"></circle><circle cx="162.0" cy="117.0" r="1" fill="#D1D5DA"></circle><circle cx="171.0" cy="117.0" r="1" fill="#D1D5DA"></circle><circle cx="0.0" cy="126.0" r="1" fill="#D1D5DA"></circle><circle cx="9.0" cy="126.0" r="1" fill="#D1D5DA"></circle><circle cx="18.0" cy="126.0" r="1" fill="#D1D5DA"></circle><circle cx="27.0" cy="126.0" r="1" fill="#D1D5DA"></circle><circle cx="36.0" cy="126.0" r="1" fill="#D1D5DA"></circle><circle cx="45.0" cy="126.0" r="1" fill="#D1D5DA"></circle><circle cx="54.0" cy="126.0" r="1" fill="#D1D5DA"></circle><circle cx="63.0" cy="126.0" r="1" fill="#D1D5DA"></circle><circle cx="72.0" cy="126.0" r="1" fill="#D1D5DA"></circle><circle cx="81.0" cy="126.0" r="1" fill="#D1D5DA"></circle><circle cx="90.0" cy="126.0" r="1" fill="#D1D5DA"></circle><circle cx="99.0" cy="126.0" r="1" fill="#D1D5DA"></circle><circle cx="108.0" cy="126.0" r="1" fill="#D1D5DA"></circle><circle cx="117.0" cy="126.0" r="1" fill="#D1D5DA"></circle><circle cx="126.0" cy="126.0" r="1" fill="#D1D5DA"></circle><circle cx="135.0" cy="126.0" r="1" fill="#D1D5DA"></circle><circle cx="144.0" cy="126.0" r="1" fill="#D1D5DA"></circle><circle cx="153.0" cy="126.0" r="1" fill="#D1D5DA"></circle><circle cx="162.0" cy="126.0" r="1" fill="#D1D5DA"></circle><circle cx="171.0" cy="126.0" r="1" fill="#D1D5DA"></circle><circle cx="0.0" cy="135.0" r="1" fill="#D1D5DA"></circle><circle cx="9.0" cy="135.0" r="1" fill="#D1D5DA"></circle><circle cx="18.0" cy="135.0" r="1" fill="#D1D5DA"></circle><circle cx="27.0" cy="135.0" r="1" fill="#D1D5DA"></circle><circle cx="36.0" cy="135.0" r="1" fill="#D1D5DA"></circle><circle cx="45.0" cy="135.0" r="1" fill="#D1D5DA"></circle><circle cx="54.0" cy="135.0" r="1" fill="#D1D5DA"></circle><circle cx="63.0" cy="135.0" r="1" fill="#D1D5DA"></circle><circle cx="72.0" cy="135.0" r="1" fill="#D1D5DA"></circle><circle cx="81.0" cy="135.0" r="1" fill="#D1D5DA"></circle><circle cx="90.0" cy="135.0" r="1" fill="#D1D5DA"></circle><circle cx="99.0" cy="135.0" r="1" fill="#D1D5DA"></circle><circle cx="108.0" cy="135.0" r="1" fill="#D1D5DA"></circle><circle cx="117.0" cy="135.0" r="1" fill="#D1D5DA"></circle><circle cx="126.0" cy="135.0" r="1" fill="#D1D5DA"></circle><circle cx="135.0" cy="135.0" r="1" fill="#D1D5DA"></circle><circle cx="144.0" cy="135.0" r="1" fill="#D1D5DA"></circle><circle cx="153.0" cy="135.0" r="1" fill="#D1D5DA"></circle><circle cx="162.0" cy="135.0" r="1" fill="#D1D5DA"></circle><circle cx="171.0" cy="135.0" r="1" fill="#D1D5DA"></circle><circle cx="0.0" cy="144.0" r="1" fill="#D1D5DA"></circle><circle cx="9.0" cy="144.0" r="1" fill="#D1D5DA"></circle><circle cx="18.0" cy="144.0" r="1" fill="#D1D5DA"></circle><circle cx="27.0" cy="144.0" r="1" fill="#D1D5DA"></circle><circle cx="36.0" cy="144.0" r="1" fill="#D1D5DA"></circle><circle cx="45.0" cy="144.0" r="1" fill="#D1D5DA"></circle><circle cx="54.0" cy="144.0" r="1" fill="#D1D5DA"></circle><circle cx="63.0" cy="144.0" r="1" fill="#D1D5DA"></circle><circle cx="72.0" cy="144.0" r="1" fill="#D1D5DA"></circle><circle cx="81.0" cy="144.0" r="1" fill="#D1D5DA"></circle><circle cx="90.0" cy="144.0" r="1" fill="#D1D5DA"></circle><circle cx="99.0" cy="144.0" r="1" fill="#D1D5DA"></circle><circle cx="108.0" cy="144.0" r="1" fill="#D1D5DA"></circle><circle cx="117.0" cy="144.0" r="1" fill="#D1D5DA"></circle><circle cx="126.0" cy="144.0" r="1" fill="#D1D5DA"></circle><circle cx="135.0" cy="144.0" r="1" fill="#D1D5DA"></circle><circle cx="144.0" cy="144.0" r="1" fill="#D1D5DA"></circle><circle cx="153.0" cy="144.0" r="1" fill="#D1D5DA"></circle><circle cx="162.0" cy="144.0" r="1" fill="#D1D5DA"></circle><circle cx="171.0" cy="144.0" r="1" fill="#D1D5DA"></circle><circle cx="0.0" cy="153.0" r="1" fill="#D1D5DA"></circle><circle cx="9.0" cy="153.0" r="1" fill="#D1D5DA"></circle><circle cx="18.0" cy="153.0" r="1" fill="#D1D5DA"></circle><circle cx="27.0" cy="153.0" r="1" fill="#D1D5DA"></circle><circle cx="36.0" cy="153.0" r="1" fill="#D1D5DA"></circle><circle cx="45.0" cy="153.0" r="1" fill="#D1D5DA"></circle><circle cx="54.0" cy="153.0" r="1" fill="#D1D5DA"></circle><circle cx="63.0" cy="153.0" r="1" fill="#D1D5DA"></circle><circle cx="72.0" cy="153.0" r="1" fill="#D1D5DA"></circle><circle cx="81.0" cy="153.0" r="1" fill="#D1D5DA"></circle><circle cx="90.0" cy="153.0" r="1" fill="#D1D5DA"></circle><circle cx="99.0" cy="153.0" r="1" fill="#D1D5DA"></circle><circle cx="108.0" cy="153.0" r="1" fill="#D1D5DA"></circle><circle cx="117.0" cy="153.0" r="1" fill="#D1D5DA"></circle><circle cx="126.0" cy="153.0" r="1" fill="#D1D5DA"></circle><circle cx="135.0" cy="153.0" r="1" fill="#D1D5DA"></circle><circle cx="144.0" cy="153.0" r="1" fill="#D1D5DA"></circle><circle cx="153.0" cy="153.0" r="1" fill="#D1D5DA"></circle><circle cx="162.0" cy="153.0" r="1" fill="#D1D5DA"></circle><circle cx="171.0" cy="153.0" r="1" fill="#D1D5DA"></circle><circle cx="0.0" cy="162.0" r="1" fill="#D1D5DA"></circle><circle cx="9.0" cy="162.0" r="1" fill="#D1D5DA"></circle><circle cx="18.0" cy="162.0" r="1" fill="#D1D5DA"></circle><circle cx="27.0" cy="162.0" r="1" fill="#D1D5DA"></circle><circle cx="36.0" cy="162.0" r="1" fill="#D1D5DA"></circle><circle cx="45.0" cy="162.0" r="1" fill="#D1D5DA"></circle><circle cx="54.0" cy="162.0" r="1" fill="#D1D5DA"></circle><circle cx="63.0" cy="162.0" r="1" fill="#D1D5DA"></circle><circle cx="72.0" cy="162.0" r="1" fill="#D1D5DA"></circle><circle cx="81.0" cy="162.0" r="1" fill="#D1D5DA"></circle><circle cx="90.0" cy="162.0" r="1" fill="#D1D5DA"></circle><circle cx="99.0" cy="162.0" r="1" fill="#D1D5DA"></circle><circle cx="108.0" cy="162.0" r="1" fill="#D1D5DA"></circle><circle cx="117.0" cy="162.0" r="1" fill="#D1D5DA"></circle><circle cx="126.0" cy="162.0" r="1" fill="#D1D5DA"></circle><circle cx="135.0" cy="162.0" r="1" fill="#D1D5DA"></circle><circle cx="144.0" cy="162.0" r="1" fill="#D1D5DA"></circle><circle cx="153.0" cy="162.0" r="1" fill="#D1D5DA"></circle><circle cx="162.0" cy="162.0" r="1" fill="#D1D5DA"></circle><circle cx="171.0" cy="162.0" r="1" fill="#D1D5DA"></circle><circle cx="0.0" cy="171.0" r="1" fill="#D1D5DA"></circle><circle cx="9.0" cy="171.0" r="1" fill="#D1D5DA"></circle><circle cx="18.0" cy="171.0" r="1" fill="#D1D5DA"></circle><circle cx="27.0" cy="171.0" r="1" fill="#D1D5DA"></circle><circle cx="36.0" cy="171.0" r="1" fill="#D1D5DA"></circle><circle cx="45.0" cy="171.0" r="1" fill="#D1D5DA"></circle><circle cx="54.0" cy="171.0" r="1" fill="#D1D5DA"></circle><circle cx="63.0" cy="171.0" r="1" fill="#D1D5DA"></circle><circle cx="72.0" cy="171.0" r="1" fill="#D1D5DA"></circle><circle cx="81.0" cy="171.0" r="1" fill="#D1D5DA"></circle><circle cx="90.0" cy="171.0" r="1" fill="#D1D5DA"></circle><circle cx="99.0" cy="171.0" r="1" fill="#D1D5DA"></circle><circle cx="108.0" cy="171.0" r="1" fill="#D1D5DA"></circle><circle cx="117.0" cy="171.0" r="1" fill="#D1D5DA"></circle><circle cx="126.0" cy="171.0" r="1" fill="#D1D5DA"></circle><circle cx="135.0" cy="171.0" r="1" fill="#D1D5DA"></circle><circle cx="144.0" cy="171.0" r="1" fill="#D1D5DA"></circle><circle cx="153.0" cy="171.0" r="1" fill="#D1D5DA"></circle><circle cx="162.0" cy="171.0" r="1" fill="#D1D5DA"></circle><circle cx="171.0" cy="171.0" r="1" fill="#D1D5DA"></circle></svg>